<?xml version="1.0" encoding="UTF-8"?>
<svg width="700pt" height="700pt" version="1.1" viewBox="0 0 700 700" xmlns="http://www.w3.org/2000/svg">
 <g>
  <path d="m542.5 87.5h-35v-17.5c0-6.2539-3.3359-12.031-8.75-15.156s-12.086-3.125-17.5 0-8.75 8.9023-8.75 15.156v17.5h-105v-17.5c0-6.2539-3.3359-12.031-8.75-15.156s-12.086-3.125-17.5 0-8.75 8.9023-8.75 15.156v17.5h-105v-17.5c0-6.2539-3.3359-12.031-8.75-15.156s-12.086-3.125-17.5 0-8.75 8.9023-8.75 15.156v17.5h-35c-13.926 0-27.277 5.5312-37.125 15.375-9.8438 9.8477-15.375 23.199-15.375 37.125v280c0 13.926 5.5312 27.277 15.375 37.125 9.8477 9.8438 23.199 15.375 37.125 15.375h385c13.926 0 27.277-5.5312 37.125-15.375 9.8438-9.8477 15.375-23.199 15.375-37.125v-280c0-13.926-5.5312-27.277-15.375-37.125-9.8477-9.8438-23.199-15.375-37.125-15.375zm17.5 332.5c0 4.6406-1.8438 9.0938-5.125 12.375s-7.7344 5.125-12.375 5.125h-385c-4.6406 0-9.0938-1.8438-12.375-5.125s-5.125-7.7344-5.125-12.375v-280c0-4.6406 1.8438-9.0938 5.125-12.375s7.7344-5.125 12.375-5.125h35v17.5c0 6.2539 3.3359 12.031 8.75 15.156s12.086 3.125 17.5 0 8.75-8.9023 8.75-15.156v-17.5h105v17.5c0 6.2539 3.3359 12.031 8.75 15.156s12.086 3.125 17.5 0 8.75-8.9023 8.75-15.156v-17.5h105v17.5c0 6.2539 3.3359 12.031 8.75 15.156s12.086 3.125 17.5 0 8.75-8.9023 8.75-15.156v-17.5h35c4.6406 0 9.0938 1.8438 12.375 5.125s5.125 7.7344 5.125 12.375z"/>
  <path d="m280 367.5c0 19.328-15.672 35-35 35s-35-15.672-35-35 15.672-35 35-35 35 15.672 35 35"/>
  <path d="m385 367.5c0 19.328-15.672 35-35 35s-35-15.672-35-35 15.672-35 35-35 35 15.672 35 35"/>
  <path d="m490 367.5c0 19.328-15.672 35-35 35s-35-15.672-35-35 15.672-35 35-35 35 15.672 35 35"/>
  <path d="m280 227.5c0 19.328-15.672 35-35 35s-35-15.672-35-35 15.672-35 35-35 35 15.672 35 35"/>
  <path d="m385 227.5c0 19.328-15.672 35-35 35s-35-15.672-35-35 15.672-35 35-35 35 15.672 35 35"/>
  <path d="m490 227.5c0 19.328-15.672 35-35 35s-35-15.672-35-35 15.672-35 35-35 35 15.672 35 35"/>
 </g>
</svg>
