<?xml version="1.0" encoding="UTF-8"?>
<svg width="700pt" height="700pt" version="1.1" viewBox="0 0 700 700" xmlns="http://www.w3.org/2000/svg" xmlns:xlink="http://www.w3.org/1999/xlink">
 <defs>
  <symbol id="u" overflow="visible">
   <path d="m3.6562-0.21875c-0.1875 0.09375-0.38672 0.16797-0.59375 0.21875-0.19922 0.050781-0.40625 0.078125-0.625 0.078125-0.66797 0-1.1992-0.17969-1.5938-0.54688-0.38672-0.375-0.57812-0.87891-0.57812-1.5156 0-0.64453 0.19141-1.1484 0.57812-1.5156 0.39453-0.375 0.92578-0.5625 1.5938-0.5625 0.21875 0 0.42578 0.027344 0.625 0.078125 0.20703 0.054687 0.40625 0.125 0.59375 0.21875v0.82812c-0.1875-0.125-0.375-0.21875-0.5625-0.28125-0.17969-0.0625-0.37109-0.09375-0.57812-0.09375-0.36719 0-0.65625 0.12109-0.875 0.35938-0.21094 0.23047-0.3125 0.55469-0.3125 0.96875 0 0.40625 0.10156 0.73047 0.3125 0.96875 0.21875 0.23047 0.50781 0.34375 0.875 0.34375 0.20703 0 0.39844-0.023437 0.57812-0.078125 0.1875-0.0625 0.375-0.16016 0.5625-0.29688z"/>
  </symbol>
  <symbol id="c" overflow="visible">
   <path d="m2.6875-2.1719c-0.085938-0.039063-0.16797-0.070313-0.25-0.09375-0.085938-0.019531-0.16797-0.03125-0.25-0.03125-0.25 0-0.44531 0.085937-0.57812 0.25-0.125 0.15625-0.1875 0.38281-0.1875 0.67188v1.375h-0.96875v-2.9844h0.96875v0.48438c0.11328-0.19531 0.25-0.33594 0.40625-0.42188 0.16406-0.09375 0.35938-0.14062 0.57812-0.14062h0.10938c0.039063 0 0.09375 0.007812 0.15625 0.015625z"/>
  </symbol>
  <symbol id="a" overflow="visible">
   <path d="m3.4375-1.5v0.26562h-2.2344c0.03125 0.23047 0.11328 0.40234 0.25 0.51562 0.13281 0.10547 0.32812 0.15625 0.57812 0.15625 0.20703 0 0.41406-0.023438 0.625-0.078125 0.20703-0.0625 0.42188-0.15625 0.64062-0.28125v0.73438c-0.21875 0.09375-0.44531 0.16406-0.67188 0.20312-0.23047 0.039062-0.45312 0.0625-0.67188 0.0625-0.54297 0-0.96484-0.13281-1.2656-0.40625-0.30469-0.28125-0.45312-0.67188-0.45312-1.1719 0-0.47656 0.14453-0.85938 0.4375-1.1406 0.30078-0.28125 0.70703-0.42188 1.2188-0.42188 0.46875 0 0.84375 0.14062 1.125 0.42188s0.42188 0.66406 0.42188 1.1406zm-0.96875-0.32812c0-0.17578-0.058594-0.31641-0.17188-0.42188-0.10547-0.11328-0.24219-0.17188-0.40625-0.17188-0.1875 0-0.33984 0.054687-0.45312 0.15625-0.11719 0.10547-0.1875 0.25-0.21875 0.4375z"/>
  </symbol>
  <symbol id="e" overflow="visible">
   <path d="m1.7969-1.3438c-0.19922 0-0.35156 0.039062-0.45312 0.10938-0.09375 0.0625-0.14062 0.16406-0.14062 0.29688 0 0.11719 0.035156 0.21094 0.10938 0.28125 0.082031 0.0625 0.19531 0.09375 0.34375 0.09375 0.17578 0 0.32812-0.0625 0.45312-0.1875s0.1875-0.28516 0.1875-0.48438v-0.10938zm1.4688-0.35938v1.7031h-0.96875v-0.4375c-0.125 0.17969-0.27344 0.30859-0.4375 0.39062-0.15625 0.082031-0.35156 0.125-0.57812 0.125-0.3125 0-0.57031-0.085938-0.76562-0.26562-0.1875-0.1875-0.28125-0.42188-0.28125-0.70312 0-0.35156 0.11719-0.61328 0.35938-0.78125 0.23828-0.16406 0.61719-0.25 1.1406-0.25h0.5625v-0.0625c0-0.15625-0.0625-0.26562-0.1875-0.32812-0.11719-0.070312-0.29688-0.10938-0.54688-0.10938-0.21094 0-0.40234 0.023437-0.57812 0.0625-0.17969 0.042969-0.33984 0.10156-0.48438 0.17188v-0.71875c0.19531-0.050781 0.39844-0.085938 0.60938-0.10938 0.20703-0.03125 0.41406-0.046875 0.625-0.046875 0.53906 0 0.92969 0.10938 1.1719 0.32812 0.23828 0.21094 0.35938 0.55469 0.35938 1.0312z"/>
  </symbol>
  <symbol id="b" overflow="visible">
   <path d="m1.5-3.8438v0.85938h0.98438v0.67188h-0.98438v1.2812c0 0.13672 0.023438 0.23047 0.078125 0.28125 0.0625 0.042969 0.17578 0.0625 0.34375 0.0625h0.48438v0.6875h-0.8125c-0.38672 0-0.65625-0.078125-0.8125-0.23438s-0.23438-0.42188-0.23438-0.79688v-1.2812h-0.46875v-0.67188h0.46875v-0.85938z"/>
  </symbol>
  <symbol id="k" overflow="visible">
   <path d="m2.5-2.5469v-1.6094h0.95312v4.1562h-0.95312v-0.4375c-0.13672 0.17969-0.28125 0.30859-0.4375 0.39062-0.15625 0.082031-0.33984 0.125-0.54688 0.125-0.375 0-0.68359-0.14453-0.92188-0.4375-0.23047-0.28906-0.34375-0.67188-0.34375-1.1406 0-0.45703 0.11328-0.83203 0.34375-1.125 0.23828-0.28906 0.54688-0.4375 0.92188-0.4375 0.19531 0 0.375 0.042969 0.53125 0.125 0.16406 0.085938 0.31641 0.21484 0.45312 0.39062zm-0.64062 1.9375c0.20703 0 0.36328-0.070313 0.46875-0.21875 0.11328-0.15625 0.17188-0.37891 0.17188-0.67188 0-0.28125-0.058594-0.49219-0.17188-0.64062-0.10547-0.15625-0.26172-0.23438-0.46875-0.23438-0.19922 0-0.35547 0.078125-0.46875 0.23438-0.10547 0.14844-0.15625 0.35938-0.15625 0.64062 0 0.29297 0.050781 0.51562 0.15625 0.67188 0.11328 0.14844 0.26953 0.21875 0.46875 0.21875z"/>
  </symbol>
  <symbol id="j" overflow="visible">
   <path d="m2.0469-0.60938c0.20703 0 0.36328-0.070313 0.46875-0.21875 0.11328-0.15625 0.17188-0.37891 0.17188-0.67188 0-0.28125-0.058594-0.49219-0.17188-0.64062-0.10547-0.15625-0.26172-0.23438-0.46875-0.23438-0.19922 0-0.35547 0.078125-0.46875 0.23438-0.10547 0.14844-0.15625 0.35938-0.15625 0.64062 0 0.29297 0.050781 0.51562 0.15625 0.67188 0.11328 0.14844 0.26953 0.21875 0.46875 0.21875zm-0.625-1.9375c0.125-0.17578 0.26562-0.30469 0.42188-0.39062 0.16406-0.082031 0.35156-0.125 0.5625-0.125 0.36328 0 0.66406 0.14844 0.90625 0.4375 0.23828 0.29297 0.35938 0.66797 0.35938 1.125 0 0.46875-0.12109 0.85156-0.35938 1.1406-0.24219 0.29297-0.54297 0.4375-0.90625 0.4375-0.21094 0-0.39844-0.042969-0.5625-0.125-0.15625-0.082031-0.29688-0.21094-0.42188-0.39062v0.4375h-0.96875v-4.1562h0.96875z"/>
  </symbol>
  <symbol id="i" overflow="visible">
   <path d="m0.0625-2.9844h0.95312l0.8125 2.0156 0.6875-2.0156h0.95312l-1.2656 3.2656c-0.125 0.33203-0.27344 0.56641-0.4375 0.70312-0.16797 0.13281-0.39062 0.20312-0.67188 0.20312h-0.54688v-0.64062h0.29688c0.16406 0 0.28516-0.027344 0.35938-0.078125 0.070313-0.054688 0.12891-0.14062 0.17188-0.26562l0.03125-0.09375z"/>
  </symbol>
  <symbol id="h" overflow="visible">
   <path d="m0.5-3.9844h1.0312v3.9844h-1.0312z"/>
  </symbol>
  <symbol id="g" overflow="visible">
   <path d="m2.875-2.8906v0.76562c-0.125-0.082031-0.25781-0.14453-0.39062-0.1875-0.13672-0.039062-0.27344-0.0625-0.40625-0.0625-0.27344 0-0.48047 0.078125-0.625 0.23438-0.14844 0.15625-0.21875 0.37109-0.21875 0.64062 0 0.28125 0.070313 0.5 0.21875 0.65625 0.14453 0.15625 0.35156 0.23438 0.625 0.23438 0.14453 0 0.28516-0.019531 0.42188-0.0625 0.13281-0.039063 0.25781-0.10938 0.375-0.20312v0.78125c-0.14844 0.0625-0.29688 0.10156-0.45312 0.125-0.15625 0.03125-0.3125 0.046875-0.46875 0.046875-0.54297 0-0.96484-0.13281-1.2656-0.40625-0.30469-0.28125-0.45312-0.67188-0.45312-1.1719 0-0.48828 0.14844-0.86719 0.45312-1.1406 0.30078-0.28125 0.72266-0.42188 1.2656-0.42188 0.15625 0 0.3125 0.015625 0.46875 0.046875 0.15625 0.023437 0.30469 0.0625 0.45312 0.125z"/>
  </symbol>
  <symbol id="d" overflow="visible">
   <path d="m1.875-2.375c-0.21094 0-0.37109 0.078125-0.48438 0.23438-0.10547 0.14844-0.15625 0.35938-0.15625 0.64062 0 0.29297 0.050781 0.51562 0.15625 0.67188 0.11328 0.14844 0.27344 0.21875 0.48438 0.21875 0.20703 0 0.36719-0.070313 0.48438-0.21875 0.11328-0.15625 0.17188-0.37891 0.17188-0.67188 0-0.28125-0.058594-0.49219-0.17188-0.64062-0.11719-0.15625-0.27734-0.23438-0.48438-0.23438zm0-0.6875c0.51953 0 0.92188 0.14062 1.2031 0.42188 0.28906 0.27344 0.4375 0.65234 0.4375 1.1406 0 0.5-0.14844 0.89062-0.4375 1.1719-0.28125 0.27344-0.68359 0.40625-1.2031 0.40625-0.51172 0-0.91406-0.13281-1.2031-0.40625-0.29297-0.28125-0.4375-0.67188-0.4375-1.1719 0-0.48828 0.14453-0.86719 0.4375-1.1406 0.28906-0.28125 0.69141-0.42188 1.2031-0.42188z"/>
  </symbol>
  <symbol id="f" overflow="visible">
   <path d="m3.4688-1.8281v1.8281h-0.96875v-1.3906c0-0.25781-0.007812-0.4375-0.015625-0.53125-0.011719-0.10156-0.03125-0.17578-0.0625-0.21875-0.03125-0.0625-0.085937-0.10938-0.15625-0.14062-0.0625-0.039062-0.13281-0.0625-0.20312-0.0625-0.21094 0-0.37109 0.078125-0.48438 0.23438-0.10547 0.15625-0.15625 0.37109-0.15625 0.64062v1.4688h-0.96875v-2.9844h0.96875v0.4375c0.13281-0.17578 0.28516-0.30469 0.45312-0.39062 0.16406-0.082031 0.34375-0.125 0.53125-0.125 0.34375 0 0.60156 0.10938 0.78125 0.32812 0.1875 0.21094 0.28125 0.51172 0.28125 0.90625z"/>
  </symbol>
  <symbol id="t" overflow="visible">
   <path d="m0.5-3.9844h1.3125l0.90625 2.125 0.90625-2.125h1.3125v3.9844h-0.96875v-2.9219l-0.92188 2.1562h-0.65625l-0.90625-2.1562v2.9219h-0.98438z"/>
  </symbol>
  <symbol id="s" overflow="visible">
   <path d="m0.45312-4.1562h0.96875v2.2656l1.0938-1.0938h1.1094l-1.4531 1.3594 1.5625 1.625h-1.1562l-1.1562-1.25v1.25h-0.96875z"/>
  </symbol>
  <symbol id="r" overflow="visible">
   <path d="m2.4219-4.1562v0.625h-0.51562c-0.13672 0-0.23438 0.027344-0.29688 0.078125-0.054687 0.054687-0.078125 0.13672-0.078125 0.25v0.21875h0.82812v0.67188h-0.82812v2.3125h-0.95312v-2.3125h-0.46875v-0.67188h0.46875v-0.21875c0-0.32031 0.085937-0.5625 0.26562-0.71875 0.1875-0.15625 0.47266-0.23438 0.85938-0.23438z"/>
  </symbol>
  <symbol id="q" overflow="visible">
   <path d="m3.2344-2.5c0.11328-0.17578 0.25391-0.3125 0.42188-0.40625 0.16406-0.10156 0.35156-0.15625 0.5625-0.15625 0.33203 0 0.58594 0.10938 0.76562 0.32812 0.1875 0.21094 0.28125 0.51172 0.28125 0.90625v1.8281h-0.96875v-1.5625c0.007813-0.019531 0.015625-0.039062 0.015625-0.0625v-0.10938c0-0.21875-0.03125-0.375-0.09375-0.46875s-0.16406-0.14062-0.29688-0.14062c-0.1875 0-0.33594 0.078125-0.4375 0.23438-0.09375 0.14844-0.14062 0.35938-0.14062 0.64062v1.4688h-0.96875v-1.5625c0-0.33203-0.03125-0.54688-0.09375-0.64062-0.054688-0.09375-0.15234-0.14062-0.29688-0.14062-0.17969 0-0.32031 0.078125-0.42188 0.23438-0.09375 0.14844-0.14062 0.35938-0.14062 0.64062v1.4688h-0.96875v-2.9844h0.96875v0.4375c0.11328-0.17578 0.24219-0.30469 0.39062-0.39062 0.15625-0.082031 0.32812-0.125 0.51562-0.125 0.20703 0 0.39062 0.054688 0.54688 0.15625 0.15625 0.09375 0.27344 0.23047 0.35938 0.40625z"/>
  </symbol>
  <symbol id="p" overflow="visible">
   <path d="m3.4688-1.8281v1.8281h-0.96875v-1.3906c0-0.25781-0.007812-0.4375-0.015625-0.53125-0.011719-0.10156-0.03125-0.17578-0.0625-0.21875-0.03125-0.0625-0.085937-0.10938-0.15625-0.14062-0.0625-0.039062-0.13281-0.0625-0.20312-0.0625-0.21094 0-0.37109 0.078125-0.48438 0.23438-0.10547 0.15625-0.15625 0.37109-0.15625 0.64062v1.4688h-0.96875v-4.1562h0.96875v1.6094c0.13281-0.17578 0.28516-0.30469 0.45312-0.39062 0.16406-0.082031 0.34375-0.125 0.53125-0.125 0.34375 0 0.60156 0.10938 0.78125 0.32812 0.1875 0.21094 0.28125 0.51172 0.28125 0.90625z"/>
  </symbol>
  <symbol id="o" overflow="visible">
   <path d="m0.5-3.9844h1.1562l1.4375 2.7344v-2.7344h0.98438v3.9844h-1.1562l-1.4375-2.7344v2.7344h-0.98438z"/>
  </symbol>
  <symbol id="n" overflow="visible">
   <path d="m0.42188-1.1719v-1.8125h0.96875v0.29688 0.60938 0.48438c0 0.24219 0.003906 0.41797 0.015625 0.53125 0.007812 0.10547 0.03125 0.17969 0.0625 0.21875 0.039062 0.0625 0.09375 0.11719 0.15625 0.15625 0.0625 0.03125 0.13281 0.046875 0.21875 0.046875 0.19531 0 0.35156-0.078125 0.46875-0.23438 0.11328-0.15625 0.17188-0.36719 0.17188-0.64062v-1.4688h0.95312v2.9844h-0.95312v-0.4375c-0.14844 0.17969-0.30469 0.30859-0.46875 0.39062-0.15625 0.082031-0.33594 0.125-0.53125 0.125-0.34375 0-0.60938-0.10156-0.79688-0.3125-0.17969-0.21875-0.26562-0.53125-0.26562-0.9375z"/>
  </symbol>
  <symbol id="m" overflow="visible">
   <path d="m0.5-3.9844h1.7031c0.50781 0 0.89844 0.11719 1.1719 0.34375 0.26953 0.21875 0.40625 0.53906 0.40625 0.95312 0 0.41797-0.13672 0.74219-0.40625 0.96875-0.27344 0.21875-0.66406 0.32812-1.1719 0.32812h-0.67188v1.3906h-1.0312zm1.0312 0.75v1.1094h0.5625c0.19531 0 0.34766-0.046875 0.45312-0.14062 0.11328-0.10156 0.17188-0.24219 0.17188-0.42188 0-0.17578-0.058594-0.3125-0.17188-0.40625-0.10547-0.09375-0.25781-0.14062-0.45312-0.14062z"/>
  </symbol>
  <symbol id="l" overflow="visible">
   <path d="m0.45312-2.9844h0.96875v2.9375c0 0.39453-0.10156 0.69531-0.29688 0.90625-0.1875 0.21875-0.46484 0.32812-0.82812 0.32812h-0.48438v-0.64062h0.17188c0.17578 0 0.29688-0.042969 0.35938-0.125 0.070312-0.074219 0.10938-0.23047 0.10938-0.46875zm0-1.1719h0.96875v0.78125h-0.96875z"/>
  </symbol>
 </defs>
 <g>
  <path d="m552.89 483.98h-402.5c-10.254 0-18.598-8.3438-18.598-18.598v-356.37c0-12.164 9.8984-22.062 22.062-22.062h35.906c1.8125 0 3.2812 1.4688 3.2812 3.2812s-1.4688 3.2812-3.2812 3.2812h-35.906c-8.5469 0-15.5 6.9531-15.5 15.5v47.938h425.47v-49.035c0-7.9414-6.4609-14.402-14.402-14.402h-37.004c-1.8125 0-3.2812-1.4688-3.2812-3.2812s1.4688-3.2812 3.2812-3.2812h37.004c11.559 0 20.965 9.4023 20.965 20.965v358.57c0 9.6484-7.8516 17.5-17.5 17.5zm-414.53-320.47v301.87c0 6.6367 5.3984 12.035 12.035 12.035h402.5c6.0312 0 10.938-4.9062 10.938-10.938v-302.97zm340.43-29.531h-0.5c-13.215 0-24.379-10.633-24.379-23.223l-0.003906-60.098c0-12.559 10.938-22.773 24.379-22.773h0.5c13.035 0 23.246 10.004 23.246 22.773v60.098c0 13.023-10.211 23.223-23.242 23.223zm-0.50391-99.531c-9.8203 0-17.816 7.2734-17.816 16.211v60.098c0 9.0312 8.1602 16.66 17.816 16.66h0.5c9.3555 0 16.68-7.3164 16.68-16.66l0.003906-60.098c0-9.2422-7.1719-16.211-16.68-16.211zm-254.41 99.531h-0.5c-13.41 0-24.316-10.418-24.316-23.223v-60.098c0-12.559 10.906-22.773 24.316-22.773h0.5c13.07 0 23.309 10.004 23.309 22.773v60.098c0 13.023-10.238 23.223-23.309 23.223zm-0.5-99.531c-9.7891 0-17.754 7.2734-17.754 16.211v60.098c0 9.0312 8.1289 16.66 17.754 16.66h0.5c9.3906 0 16.746-7.3164 16.746-16.66v-60.098c0-9.2422-7.1992-16.211-16.746-16.211zm220.68 59.062h-187.03c-1.8125 0-3.2812-1.4688-3.2812-3.2812s1.4688-3.2812 3.2812-3.2812h187.03c1.8125 0 3.2812 1.4688 3.2812 3.2812s-1.4688 3.2812-3.2812 3.2812z"/>
  <path d="m235.7 262.68h-50.312c-1.8125 0-3.2812-1.4688-3.2812-3.2812v-50.312c0-1.8125 1.4688-3.2812 3.2812-3.2812h50.312c1.8125 0 3.2812 1.4688 3.2812 3.2812v50.312c0 1.8125-1.4688 3.2812-3.2812 3.2812zm-47.031-6.5625h43.75v-43.75h-43.75z"/>
  <path d="m329.4 262.68h-50.312c-1.8125 0-3.2812-1.4688-3.2812-3.2812v-50.312c0-1.8125 1.4688-3.2812 3.2812-3.2812h50.312c1.8125 0 3.2812 1.4688 3.2812 3.2812v50.312c0 1.8125-1.4688 3.2812-3.2812 3.2812zm-47.031-6.5625h43.75v-43.75h-43.75z"/>
  <path d="m423.1 262.68h-50.312c-1.8125 0-3.2812-1.4688-3.2812-3.2812v-50.312c0-1.8125 1.4688-3.2812 3.2812-3.2812h50.312c1.8125 0 3.2812 1.4688 3.2812 3.2812v50.312c0 1.8125-1.4688 3.2812-3.2812 3.2812zm-47.031-6.5625h43.75v-43.75h-43.75z"/>
  <path d="m516.8 262.68h-50.312c-1.8125 0-3.2812-1.4688-3.2812-3.2812v-50.312c0-1.8125 1.4688-3.2812 3.2812-3.2812h50.312c1.8125 0 3.2812 1.4688 3.2812 3.2812v50.312c0 1.8125-1.4688 3.2812-3.2812 3.2812zm-47.031-6.5625h43.75v-43.75h-43.75z"/>
  <path d="m235.7 350.55h-50.312c-1.8125 0-3.2812-1.4688-3.2812-3.2812v-50.312c0-1.8125 1.4688-3.2812 3.2812-3.2812h50.312c1.8125 0 3.2812 1.4688 3.2812 3.2812v50.312c0 1.8125-1.4688 3.2812-3.2812 3.2812zm-47.031-6.5625h43.75v-43.75h-43.75z"/>
  <path d="m329.4 350.55h-50.312c-1.8125 0-3.2812-1.4688-3.2812-3.2812v-50.312c0-1.8125 1.4688-3.2812 3.2812-3.2812h50.312c1.8125 0 3.2812 1.4688 3.2812 3.2812v50.312c0 1.8125-1.4688 3.2812-3.2812 3.2812zm-47.031-6.5625h43.75v-43.75h-43.75z"/>
  <path d="m423.1 350.55h-50.312c-1.8125 0-3.2812-1.4688-3.2812-3.2812v-50.312c0-1.8125 1.4688-3.2812 3.2812-3.2812h50.312c1.8125 0 3.2812 1.4688 3.2812 3.2812v50.312c0 1.8125-1.4688 3.2812-3.2812 3.2812zm-47.031-6.5625h43.75v-43.75h-43.75z"/>
  <path d="m516.8 350.55h-50.312c-1.8125 0-3.2812-1.4688-3.2812-3.2812v-50.312c0-1.8125 1.4688-3.2812 3.2812-3.2812h50.312c1.8125 0 3.2812 1.4688 3.2812 3.2812v50.312c0 1.8125-1.4688 3.2812-3.2812 3.2812zm-47.031-6.5625h43.75v-43.75h-43.75z"/>
  <path d="m235.7 438.41h-50.312c-1.8125 0-3.2812-1.4688-3.2812-3.2812v-50.312c0-1.8125 1.4688-3.2812 3.2812-3.2812h50.312c1.8125 0 3.2812 1.4688 3.2812 3.2812v50.312c0 1.8125-1.4688 3.2812-3.2812 3.2812zm-47.031-6.5625h43.75v-43.75h-43.75z"/>
  <path d="m329.4 438.41h-50.312c-1.8125 0-3.2812-1.4688-3.2812-3.2812v-50.312c0-1.8125 1.4688-3.2812 3.2812-3.2812h50.312c1.8125 0 3.2812 1.4688 3.2812 3.2812v50.312c0 1.8125-1.4688 3.2812-3.2812 3.2812zm-47.031-6.5625h43.75v-43.75h-43.75z"/>
  <path d="m423.1 438.41h-50.312c-1.8125 0-3.2812-1.4688-3.2812-3.2812v-50.312c0-1.8125 1.4688-3.2812 3.2812-3.2812h50.312c1.8125 0 3.2812 1.4688 3.2812 3.2812v50.312c0 1.8125-1.4688 3.2812-3.2812 3.2812zm-47.031-6.5625h43.75v-43.75h-43.75z"/>
  <path d="m516.8 438.41h-50.312c-1.8125 0-3.2812-1.4688-3.2812-3.2812v-50.312c0-1.8125 1.4688-3.2812 3.2812-3.2812h50.312c1.8125 0 3.2812 1.4688 3.2812 3.2812v50.312c0 1.8125-1.4688 3.2812-3.2812 3.2812zm-47.031-6.5625h43.75v-43.75h-43.75z"/>
  <path d="m304.25 237.53c-0.83984 0-1.6797-0.32031-2.3203-0.96094-1.2812-1.2812-1.2812-3.3594 0-4.6406l42.199-42.199c1.2812-1.2812 3.3594-1.2812 4.6406 0s1.2812 3.3594 0 4.6406l-42.199 42.199c-0.64062 0.64062-1.4805 0.96094-2.3203 0.96094z"/>
  <path d="m491.64 237.53c-0.83984 0-1.6797-0.32031-2.3203-0.96094-1.2812-1.2812-1.2812-3.3594 0-4.6406l42.02-42.02c1.2812-1.2812 3.3594-1.2812 4.6406 0s1.2812 3.3594 0 4.6406l-42.02 42.02c-0.64063 0.64062-1.4805 0.96094-2.3203 0.96094z"/>
  <use x="70" y="576.40625" xlink:href="#u"/>
  <use x="74.011719" y="576.40625" xlink:href="#c"/>
  <use x="76.710938" y="576.40625" xlink:href="#a"/>
  <use x="80.417969" y="576.40625" xlink:href="#e"/>
  <use x="84.109375" y="576.40625" xlink:href="#b"/>
  <use x="86.722656" y="576.40625" xlink:href="#a"/>
  <use x="90.433594" y="576.40625" xlink:href="#k"/>
  <use x="96.25" y="576.40625" xlink:href="#j"/>
  <use x="100.167969" y="576.40625" xlink:href="#i"/>
  <use x="105.636719" y="576.40625" xlink:href="#h"/>
  <use x="107.667969" y="576.40625" xlink:href="#g"/>
  <use x="110.910156" y="576.40625" xlink:href="#d"/>
  <use x="114.667969" y="576.40625" xlink:href="#f"/>
  <use x="120.464844" y="576.40625" xlink:href="#t"/>
  <use x="125.90625" y="576.40625" xlink:href="#e"/>
  <use x="129.597656" y="576.40625" xlink:href="#c"/>
  <use x="132.296875" y="576.40625" xlink:href="#s"/>
  <use x="135.933594" y="576.40625" xlink:href="#a"/>
  <use x="139.640625" y="576.40625" xlink:href="#b"/>
  <use x="70" y="581.875" xlink:href="#r"/>
  <use x="72.378906" y="581.875" xlink:href="#c"/>
  <use x="75.078125" y="581.875" xlink:href="#d"/>
  <use x="78.832031" y="581.875" xlink:href="#q"/>
  <use x="86.4375" y="581.875" xlink:href="#b"/>
  <use x="89.050781" y="581.875" xlink:href="#p"/>
  <use x="92.941406" y="581.875" xlink:href="#a"/>
  <use x="98.554688" y="581.875" xlink:href="#o"/>
  <use x="103.132812" y="581.875" xlink:href="#d"/>
  <use x="106.890625" y="581.875" xlink:href="#n"/>
  <use x="110.785156" y="581.875" xlink:href="#f"/>
  <use x="116.582031" y="581.875" xlink:href="#m"/>
  <use x="120.589844" y="581.875" xlink:href="#c"/>
  <use x="123.285156" y="581.875" xlink:href="#d"/>
  <use x="127.042969" y="581.875" xlink:href="#l"/>
  <use x="128.917969" y="581.875" xlink:href="#a"/>
  <use x="132.625" y="581.875" xlink:href="#g"/>
  <use x="135.867188" y="581.875" xlink:href="#b"/>
 </g>
</svg>
